HIERARCHY
ROOT Hips
{
	OFFSET 0.00000 0.00000 0.00000
	CHANNELS 6 Xposition Yposition Zposition Zrotation Yrotation Xrotation 
	JOINT LHipJoint
	{
		OFFSET 0 0 0
		CHANNELS 3 Zrotation Yrotation Xrotation
		JOINT LeftUpLeg
		{
			OFFSET 1.62329 -1.80800 0.67318
			CHANNELS 3 Zrotation Yrotation Xrotation
			JOINT LeftLeg
			{
				OFFSET 2.57139 -7.06484 0.00000
				CHANNELS 3 Zrotation Yrotation Xrotation
				JOINT LeftFoot
				{
					OFFSET 2.52017 -6.92413 0.00000
					CHANNELS 3 Zrotation Yrotation Xrotation
					JOINT LeftToeBase
					{
						OFFSET 0.23295 -0.64001 2.10214
						CHANNELS 3 Zrotation Yrotation Xrotation
						End Site
						{
							OFFSET 0.00000 -0.00000 1.10139
						}
					}
				}
			}
		}
	}
	JOINT RHipJoint
	{
		OFFSET 0 0 0
		CHANNELS 3 Zrotation Yrotation Xrotation
		JOINT RightUpLeg
		{
			OFFSET -1.48061 -1.80800 0.67318
			CHANNELS 3 Zrotation Yrotation Xrotation
			JOINT RightLeg
			{
				OFFSET -2.63258 -7.23296 0.00000
				CHANNELS 3 Zrotation Yrotation Xrotation
				JOINT RightFoot
				{
					OFFSET -2.54779 -7.00000 0.00000
					CHANNELS 3 Zrotation Yrotation Xrotation
					JOINT RightToeBase
					{
						OFFSET -0.23067 -0.63376 2.12161
						CHANNELS 3 Zrotation Yrotation Xrotation
						End Site
						{
							OFFSET -0.00000 -0.00000 1.11000
						}
					}
				}
			}
		}
	}
	JOINT LowerBack
	{
		OFFSET 0 0 0
		CHANNELS 3 Zrotation Yrotation Xrotation
		JOINT Spine
		{
			OFFSET -0.02108 2.07573 -0.16981
			CHANNELS 3 Zrotation Yrotation Xrotation
			JOINT Spine1
			{
				OFFSET 0.05070 2.08439 -0.03141
				CHANNELS 3 Zrotation Yrotation Xrotation
				JOINT Neck
				{
					OFFSET 0 0 0
					CHANNELS 3 Zrotation Yrotation Xrotation
					JOINT Neck1
					{
						OFFSET -0.10731 1.60408 0.31370
						CHANNELS 3 Zrotation Yrotation Xrotation
						JOINT Head
						{
							OFFSET 0.08411 1.65679 -0.30822
							CHANNELS 3 Zrotation Yrotation Xrotation
							End Site
							{
								OFFSET 0.03911 1.69149 -0.14146
							}
						}
					}
				}
				JOINT LeftShoulder
				{
					OFFSET 0 0 0
					CHANNELS 3 Zrotation Yrotation Xrotation
					JOINT LeftArm
					{
						OFFSET 3.52315 0.73219 -0.54694
						CHANNELS 3 Zrotation Yrotation Xrotation
						JOINT LeftForeArm
						{
							OFFSET 5.32462 -0.00000 -0.00000
							CHANNELS 3 Zrotation Yrotation Xrotation
							JOINT LeftHand
							{
								OFFSET 3.48402 -0.00000 -0.00000
								CHANNELS 3 Zrotation Yrotation Xrotation
								JOINT LeftFingerBase
								{
									OFFSET 0 0 0
									CHANNELS 3 Zrotation Yrotation Xrotation
									JOINT LeftHandIndex1
									{
										OFFSET 0.57248 -0.00000 -0.00000
										CHANNELS 3 Zrotation Yrotation Xrotation
										End Site
										{
											OFFSET 0.46154 -0.00000 -0.00000
										}
									}
								}
								JOINT LThumb
								{
									OFFSET 0 0 0
									CHANNELS 3 Zrotation Yrotation Xrotation
									End Site
									{
										OFFSET 0.46859 -0.00000 0.46859
									}
								}
							}
						}
					}
				}
				JOINT RightShoulder
				{
					OFFSET 0 0 0
					CHANNELS 3 Zrotation Yrotation Xrotation
					JOINT RightArm
					{
						OFFSET -3.41766 0.93592 -0.10019
						CHANNELS 3 Zrotation Yrotation Xrotation
						JOINT RightForeArm
						{
							OFFSET -5.33589 -0.00000 -0.00000
							CHANNELS 3 Zrotation Yrotation Xrotation
							JOINT RightHand
							{
								OFFSET -3.64134 -0.00000 -0.00000
								CHANNELS 3 Zrotation Yrotation Xrotation
								JOINT RightFingerBase
								{
									OFFSET 0 0 0
									CHANNELS 3 Zrotation Yrotation Xrotation
									JOINT RightHandIndex1
									{
										OFFSET -0.73481 -0.00000 -0.00000
										CHANNELS 3 Zrotation Yrotation Xrotation
										End Site
										{
											OFFSET -0.59242 -0.00000 -0.00000
										}
									}
								}
								JOINT RThumb
								{
									OFFSET 0 0 0
									CHANNELS 3 Zrotation Yrotation Xrotation
									End Site
									{
										OFFSET -0.60147 -0.00000 0.60147
									}
								}
							}
						}
					}
				}
			}
		}
	}
}
MOTION
Frames: 6
Frame Time: .0083333
0.3326 29.1832 -6.8852 6.1590 -48.8091 1.2634 0.0000 0.0000 0.0000 -27.0437 -1.8041 -13.8509 0.9260 6.1303 17.1629 0.1109 -3.1570 -5.9849 0.2005 -2.8833 -7.9540 0.0000 0.0000 0.0000 16.5830 -6.8066 -26.1979 -7.4333 -15.6862 50.4948 -1.4516 -7.7850 -26.7579 -0.4006 -4.0637 11.2559 -3.1667 1.8295 2.9684 0.3775 2.3371 0.1961 2.0583 1.1902 -1.6046 -8.4260 4.1567 -14.4116 -0.4260 8.7207 41.7630 2.7915 1.8444 17.5402 0.0000 0.0000 0.0000 -89.1142 1.1939 10.0978 16.0621 -25.6047 -3.6727 -0.0000 -0.0000 6.5535 13.5797 25.3142 5.8967 -7.1250 0.0000 -0.0000 -17.1585 55.0955 -4.3479 0.0000 0.0000 0.0000 80.8018 1.3678 10.1198 -20.5457 31.2942 -5.8122 0.0000 0.0000 20.6402 -21.2289 3.4914 -1.3552 7.1250 -0.0000 -0.0000 4.0916 -26.2313 1.8662
0.3127 29.1851 -6.8722 6.2208 -48.0266 1.2816 0.0000 0.0000 0.0000 -27.1747 -2.0493 -13.5864 0.9016 6.0514 16.9335 0.1035 -3.4901 -5.8523 0.1866 -2.7824 -7.6736 0.0000 0.0000 0.0000 16.1953 -6.4564 -26.2568 -7.5387 -15.7693 50.8837 -1.2729 -7.6405 -25.3290 -0.2693 -3.3382 9.2219 -3.3069 1.8225 2.8137 0.4046 2.3292 0.1887 2.1699 1.1864 -1.5318 -8.4290 4.1784 -14.3811 -0.4091 8.7652 41.8177 2.8095 1.8667 17.5601 -0.0000 0.0000 0.0000 -89.0455 1.3669 11.0891 16.2971 -25.9219 -3.7749 -0.0000 -0.0000 5.2169 14.6859 24.8943 6.2955 -7.1250 0.0000 -0.0000 -15.8223 54.9036 -3.9214 -0.0000 0.0000 0.0000 80.9035 1.1690 9.8627 -20.4687 31.2030 -5.7722 0.0000 0.0000 21.3797 -21.0177 3.0819 -1.1834 7.1250 -0.0000 -0.0000 4.2612 -26.6736 1.8997
0.2928 29.1847 -6.8721 6.0867 -47.1333 1.2891 0.0000 0.0000 0.0000 -27.1029 -2.3429 -13.2907 0.8940 6.0263 16.8607 0.0946 -3.7735 -5.6915 0.1749 -2.6943 -7.4288 0.0000 0.0000 0.0000 15.9920 -5.9496 -26.0258 -7.5812 -15.8024 51.0396 -1.2009 -7.2553 -24.5017 -0.2517 -3.2281 8.9144 -3.4577 1.7439 2.9835 0.5391 2.2150 0.1564 2.3919 1.1337 -1.6641 -8.4128 4.2928 -14.1623 -0.5477 8.9663 41.6271 2.7646 1.9574 17.3968 -0.0000 0.0000 0.0000 -89.0465 1.5758 11.5553 16.5536 -26.2655 -3.8877 -0.0000 -0.0000 4.9651 14.5355 24.9720 6.2468 -7.1250 0.0000 -0.0000 -16.0145 54.9500 -3.9891 -0.0000 0.0000 0.0000 80.9044 0.9721 9.7714 -20.3411 31.0512 -5.7063 0.0000 0.0000 22.0718 -20.6843 2.9904 -1.1284 7.1250 -0.0000 -0.0000 4.5179 -26.7777 2.0038
0.2715 29.1847 -6.8769 5.4290 -46.1801 1.6050 0.0000 0.0000 0.0000 -26.5939 -2.6509 -12.9797 0.8954 6.0311 16.8747 0.0827 -4.1990 -5.5077 0.1741 -2.6877 -7.4104 0.0000 0.0000 0.0000 16.2425 -5.3916 -25.6267 -7.5698 -15.7935 50.9977 -1.1925 -6.7022 -24.0602 -0.2313 -3.0957 8.5454 -3.2937 1.6582 3.2768 0.7760 2.0999 0.1192 2.5401 1.0797 -1.8620 -8.3946 4.4315 -14.0988 -0.5757 9.1940 41.6030 2.7855 2.0589 17.3577 -0.0000 -0.0000 0.0000 -89.0300 1.7927 11.9913 16.7904 -26.5806 -3.9931 -0.0000 -0.0000 4.8950 14.4029 24.8651 6.1632 -7.1250 0.0000 -0.0000 -16.0914 54.8208 -3.9579 -0.0000 -0.0000 0.0000 80.9386 0.7727 9.8950 -20.1904 30.8711 -5.6287 0.0000 0.0000 22.0744 -20.2298 4.0496 -1.4908 7.1250 -0.0000 -0.0000 4.8358 -25.6619 2.2722
0.2520 29.1842 -6.8815 5.0084 -45.1382 1.7712 0.0000 0.0000 0.0000 -26.2582 -3.0202 -12.7794 0.9154 6.0962 17.0639 0.0704 -4.7402 -5.3875 0.1584 -2.5642 -7.0677 0.0000 0.0000 0.0000 16.3168 -4.9587 -25.2616 -7.5243 -15.7580 50.8305 -1.1587 -6.1505 -23.4221 -0.1371 -2.3864 6.5749 -3.2259 1.5837 3.5508 0.9257 1.9969 0.1306 2.6545 1.0303 -1.9998 -8.6135 4.4875 -14.4993 -0.0458 9.2462 42.0690 3.1057 2.0831 17.6614 -0.0000 0.0000 0.0000 -88.9193 1.8118 12.4714 16.9902 -26.8448 -4.0829 -0.0000 -0.0000 4.9964 14.3643 24.7039 6.1090 -7.1250 0.0000 -0.0000 -16.0458 54.6571 -3.8815 -0.0000 0.0000 0.0000 81.0512 0.6205 10.2364 -20.1092 30.7737 -5.5871 0.0000 0.0000 21.3911 -19.9827 5.6757 -2.0596 7.1250 -0.0000 -0.0000 4.9901 -23.9464 2.5445
0.2321 29.1844 -6.8811 4.9948 -44.0269 1.7526 0.0000 0.0000 0.0000 -26.2511 -3.5061 -12.6967 0.9486 6.2027 17.3737 0.0601 -5.2795 -5.3604 0.1658 -2.6230 -7.2308 0.0000 0.0000 0.0000 16.0263 -4.5388 -24.9311 -7.4358 -15.6881 50.5038 -1.1481 -5.4453 -22.8889 -0.0747 -1.7626 4.8500 -3.3615 1.5013 3.6601 0.9866 1.8791 0.1620 2.7980 0.9730 -2.0270 -8.2773 4.4481 -14.3146 -0.5627 9.2566 41.6800 2.7989 2.1069 17.4596 -0.0000 0.0000 0.0000 -88.7748 1.6821 12.9793 17.1603 -27.0686 -4.1600 -0.0000 -0.0000 5.0054 14.1780 24.8274 6.0551 -7.1250 0.0000 -0.0000 -16.2970 54.7412 -3.9785 -0.0000 0.0000 0.0000 81.1439 0.5475 10.3904 -20.0140 30.6592 -5.5385 0.0000 0.0000 20.9825 -20.1672 6.2981 -2.3073 7.1250 -0.0000 -0.0000 4.8464 -23.2794 2.5453
